<?xml version="1.0" encoding="UTF-8" standalone="no"?>
<!-- Created with Inkscape (http://www.inkscape.org/) -->

<svg
   width="1280"
   height="768"
   viewBox="0 0 1280 768"
   version="1.1"
   id="svg1"
   xml:space="preserve"
   inkscape:version="1.3.2 (091e20ef0f, 2023-11-25)"
   sodipodi:docname="çizim.svg"
   xmlns:inkscape="http://www.inkscape.org/namespaces/inkscape"
   xmlns:sodipodi="http://sodipodi.sourceforge.net/DTD/sodipodi-0.dtd"
   xmlns="http://www.w3.org/2000/svg"
   xmlns:svg="http://www.w3.org/2000/svg"
   xmlns:sketch="http://www.bohemiancoding.com/sketch/ns"><sodipodi:namedview
     id="namedview1"
     pagecolor="#505050"
     bordercolor="#eeeeee"
     borderopacity="1"
     inkscape:showpageshadow="0"
     inkscape:pageopacity="0"
     inkscape:pagecheckerboard="0"
     inkscape:deskcolor="#505050"
     inkscape:document-units="px"
     inkscape:zoom="24.954977"
     inkscape:cx="246.08318"
     inkscape:cy="67.461494"
     inkscape:window-width="1920"
     inkscape:window-height="1051"
     inkscape:window-x="0"
     inkscape:window-y="0"
     inkscape:window-maximized="1"
     inkscape:current-layer="layer1" /><defs
     id="defs1" /><g
     inkscape:label="Katman 1"
     inkscape:groupmode="layer"
     id="layer1"><rect
       style="fill:#ffccaa;fill-opacity:1;stroke:none;stroke-width:1.98969;stroke-linecap:round;stroke-linejoin:round"
       id="rect1"
       width="1280"
       height="98.597939"
       x="4.2632564e-14"
       y="-2.1316282e-14"
       inkscape:export-filename="top_bar_rubber.png"
       inkscape:export-xdpi="96"
       inkscape:export-ydpi="96" /><path
       d="m 939.16237,22.171482 -33.09715,32.677166 -3.64413,-3.59717 33.09977,-32.677185 c 1.00689,-0.993853 2.63722,-0.993853 3.64151,0 1.0069,0.993865 1.0069,2.603324 0,3.597189 z m -42.20356,41.671426 c -0.3365,-0.33129 -3.64413,-3.59718 -3.64413,-3.59718 l 5.46489,-5.39708 3.64152,3.59718 z m -5.4649,12.5862 c -2.5668,2.3816 -14.03654,7.68997 -20.79005,2.54333 0,0 2.35028,-1.83382 4.12931,-5.51446 4.24931,-11.28715 14.83998,-9.61507 14.83998,-9.61507 l 3.64153,3.59456 c 0.0365,0.0366 2.7207,4.78146 -1.82077,8.99164 z m 51.3126,-61.451991 c -3.01809,-2.978945 -7.91171,-2.978945 -10.92978,0 l -44.8095,44.243451 c -5.48576,-0.12521 -13.08445,1.81816 -16.36337,12.56012 -2.50682,5.6814 -9.10642,5.39446 -9.10642,5.39446 13.70266,15.19996 29.85213,6.58656 33.538,2.85114 3.24241,-3.28155 3.70934,-7.29871 3.36241,-10.51242 l 44.30866,-43.74521 c 3.01808,-2.98157 3.01808,-7.812585 0,-10.791541 z"
       id="brush-6-7-5-9-2-8"
       sketch:type="MSShapeGroup"
       style="fill:#000000;fill-rule:evenodd;stroke:none;stroke-width:2.60854" /><path
       style="fill:#8d4900;fill-opacity:1;stroke:none;stroke-width:0.209257;stroke-linecap:round;stroke-linejoin:round"
       d="m 876.13487,81.010778 c -1.84416,-0.23929 -3.84859,-0.9567 -4.9967,-1.78839 l -0.32039,-0.23209 0.76248,-0.78131 c 1.41833,-1.45332 2.66846,-3.31369 3.44282,-5.12338 1.06795,-2.49577 2.04048,-3.96893 3.64862,-5.5268 1.44078,-1.39574 3.05053,-2.37321 4.94871,-3.00494 1.59017,-0.52922 2.31588,-0.64835 4.24177,-0.69627 l 1.70928,-0.0425 1.81708,1.79316 c 2.0213,1.9947 2.14542,2.16674 2.473,3.42797 0.24839,0.95632 0.28125,2.38015 0.0748,3.243 -0.33272,1.39087 -1.0865,2.70996 -2.16396,3.78684 -2.16052,2.15938 -7.27841,4.30757 -11.61758,4.87639 -0.861,0.11287 -3.35066,0.1552 -4.01997,0.0683 z"
       id="path1-2-0-3-1-6-9" /><path
       d="m 301.98838,18.797753 -33.09715,32.67717 -3.64413,-3.597177 33.09977,-32.677182 c 1.00689,-0.993853 2.63722,-0.993853 3.64151,0 1.0069,0.993865 1.0069,2.603324 0,3.597189 z M 259.78482,60.469176 C 259.44832,60.137884 256.14069,56.872 256.14069,56.872 l 5.46489,-5.397077 3.64152,3.597176 z m -5.4649,12.586204 c -2.5668,2.381595 -14.03654,7.689966 -20.79005,2.543327 0,0 2.35028,-1.833813 4.12931,-5.514456 4.24931,-11.287155 14.83998,-9.615075 14.83998,-9.615075 l 3.64153,3.594563 c 0.0365,0.03659 2.7207,4.78146 -1.82077,8.991641 z m 51.3126,-61.451992 c -3.01809,-2.9789449 -7.91171,-2.9789449 -10.92978,0 l -44.8095,44.243448 c -5.48576,-0.125207 -13.08445,1.818158 -16.36337,12.56012 -2.50682,5.681403 -9.10642,5.394464 -9.10642,5.394464 13.70266,15.199956 29.85213,6.586562 33.538,2.851136 3.24241,-3.281551 3.70934,-7.298702 3.36241,-10.512417 l 44.30866,-43.74521 c 3.01808,-2.98157 3.01808,-7.812585 0,-10.791541 z"
       id="brush"
       sketch:type="MSShapeGroup"
       style="fill:#000000;fill-rule:evenodd;stroke:none;stroke-width:2.60854" /><path
       style="fill:#d40000;fill-opacity:1;stroke:none;stroke-width:0.209257;stroke-linecap:round;stroke-linejoin:round"
       d="m 238.96088,77.637051 c -1.84416,-0.239287 -3.84859,-0.956703 -4.9967,-1.788395 l -0.32039,-0.232088 0.76248,-0.781306 c 1.41833,-1.453327 2.66846,-3.313692 3.44282,-5.123383 1.06795,-2.495772 2.04048,-3.968925 3.64862,-5.526802 1.44078,-1.39574 3.05053,-2.373208 4.94871,-3.004937 1.59017,-0.529224 2.31588,-0.648346 4.24177,-0.696266 l 1.70928,-0.04253 1.81708,1.793156 c 2.0213,1.994699 2.14542,2.166737 2.473,3.42797 0.24839,0.956321 0.28125,2.380151 0.0748,3.242996 -0.33272,1.39087 -1.0865,2.709964 -2.16396,3.786844 -2.16052,2.159378 -7.27841,4.307573 -11.61758,4.876388 -0.861,0.112868 -3.35066,0.1552 -4.01997,0.06835 z"
       id="path1" /><path
       d="m 414.92935,18.797753 -33.09715,32.677166 -3.64413,-3.59717 33.09977,-32.677185 c 1.00689,-0.993853 2.63722,-0.993853 3.64151,0 1.0069,0.993865 1.0069,2.603324 0,3.597189 z m -42.20356,41.671426 c -0.3365,-0.33129 -3.64413,-3.59718 -3.64413,-3.59718 l 5.46489,-5.39708 3.64152,3.59718 z m -5.4649,12.5862 c -2.5668,2.3816 -14.03654,7.68997 -20.79005,2.54333 0,0 2.35028,-1.83382 4.12931,-5.51446 4.24931,-11.28715 14.83998,-9.61507 14.83998,-9.61507 l 3.64153,3.59456 c 0.0365,0.0366 2.7207,4.78146 -1.82077,8.99164 z m 51.3126,-61.451991 c -3.01809,-2.9789449 -7.91171,-2.9789449 -10.92978,0 l -44.8095,44.243451 c -5.48576,-0.12521 -13.08445,1.81816 -16.36337,12.56012 -2.50682,5.6814 -9.10642,5.39446 -9.10642,5.39446 13.70266,15.19996 29.85213,6.58656 33.538,2.85114 3.24241,-3.28155 3.70934,-7.29871 3.36241,-10.51242 l 44.30866,-43.74521 c 3.01808,-2.98157 3.01808,-7.812585 0,-10.791541 z"
       id="brush-6"
       sketch:type="MSShapeGroup"
       style="fill:#000000;fill-rule:evenodd;stroke:none;stroke-width:2.60854" /><path
       style="fill:#27b900;fill-opacity:1;stroke:none;stroke-width:0.209257;stroke-linecap:round;stroke-linejoin:round"
       d="m 351.90185,77.637049 c -1.84416,-0.23929 -3.84859,-0.9567 -4.9967,-1.78839 l -0.32039,-0.23209 0.76248,-0.78131 c 1.41833,-1.45332 2.66846,-3.31369 3.44282,-5.12338 1.06795,-2.49577 2.04048,-3.96893 3.64862,-5.5268 1.44078,-1.39574 3.05053,-2.37321 4.94871,-3.00494 1.59017,-0.52922 2.31588,-0.64835 4.24177,-0.69627 l 1.70928,-0.0425 1.81708,1.79316 c 2.0213,1.9947 2.14542,2.16674 2.473,3.42797 0.24839,0.95632 0.28125,2.38015 0.0748,3.243 -0.33272,1.39087 -1.0865,2.70996 -2.16396,3.78684 -2.16052,2.15938 -7.27841,4.30757 -11.61758,4.87639 -0.861,0.11287 -3.35066,0.1552 -4.01997,0.0683 z"
       id="path1-2" /><path
       d="m 524.61708,23.032231 -33.09715,32.677166 -3.64413,-3.59717 33.09977,-32.677185 c 1.00689,-0.993853 2.63722,-0.993853 3.64151,0 1.0069,0.993865 1.0069,2.603324 0,3.597189 z m -42.20356,41.671426 c -0.3365,-0.33129 -3.64413,-3.59718 -3.64413,-3.59718 l 5.46489,-5.39708 3.64152,3.59718 z m -5.4649,12.5862 c -2.5668,2.3816 -14.03654,7.68997 -20.79005,2.54333 0,0 2.35028,-1.83382 4.12931,-5.51446 4.24931,-11.28715 14.83998,-9.61507 14.83998,-9.61507 l 3.64153,3.59456 c 0.0365,0.0366 2.7207,4.78146 -1.82077,8.99164 z m 51.3126,-61.451991 c -3.01809,-2.978945 -7.91171,-2.978945 -10.92978,0 l -44.8095,44.243451 c -5.48576,-0.12521 -13.08445,1.81816 -16.36337,12.56012 -2.50682,5.6814 -9.10642,5.39446 -9.10642,5.39446 13.70266,15.19996 29.85213,6.58656 33.538,2.85114 3.24241,-3.28155 3.70934,-7.29871 3.36241,-10.51242 l 44.30866,-43.74521 c 3.01808,-2.98157 3.01808,-7.812585 0,-10.791541 z"
       id="brush-6-7"
       sketch:type="MSShapeGroup"
       style="fill:#000000;fill-rule:evenodd;stroke:none;stroke-width:2.60854" /><path
       style="fill:#3289ff;fill-opacity:1;stroke:none;stroke-width:0.209257;stroke-linecap:round;stroke-linejoin:round"
       d="m 461.58958,81.871527 c -1.84416,-0.23929 -3.84859,-0.9567 -4.9967,-1.78839 l -0.32039,-0.23209 0.76248,-0.78131 c 1.41833,-1.45332 2.66846,-3.31369 3.44282,-5.12338 1.06795,-2.49577 2.04048,-3.96893 3.64862,-5.5268 1.44078,-1.39574 3.05053,-2.37321 4.94871,-3.00494 1.59017,-0.52922 2.31588,-0.64835 4.24177,-0.69627 l 1.70928,-0.0425 1.81708,1.79316 c 2.0213,1.9947 2.14542,2.16674 2.473,3.42797 0.24839,0.95632 0.28125,2.38015 0.0748,3.243 -0.33272,1.39087 -1.0865,2.70996 -2.16396,3.78684 -2.16052,2.15938 -7.27841,4.30757 -11.61758,4.87639 -0.861,0.11287 -3.35066,0.1552 -4.01997,0.0683 z"
       id="path1-2-0" /><path
       d="m 634.30481,14.411221 -33.09715,32.677166 -3.64413,-3.59717 33.09977,-32.677185 c 1.00689,-0.9938529 2.63722,-0.9938529 3.64151,0 1.0069,0.993865 1.0069,2.603324 0,3.597189 z m -42.20356,41.671426 c -0.3365,-0.33129 -3.64413,-3.59718 -3.64413,-3.59718 l 5.46489,-5.39708 3.64152,3.59718 z m -5.4649,12.5862 c -2.5668,2.3816 -14.03654,7.68997 -20.79005,2.54333 0,0 2.35028,-1.83382 4.12931,-5.51446 4.24931,-11.28715 14.83998,-9.61507 14.83998,-9.61507 l 3.64153,3.59456 c 0.0365,0.0366 2.7207,4.78146 -1.82077,8.99164 z m 51.3126,-61.4519909 c -3.01809,-2.9789454 -7.91171,-2.9789454 -10.92978,0 l -44.8095,44.2434509 c -5.48576,-0.12521 -13.08445,1.81816 -16.36337,12.56012 -2.50682,5.6814 -9.10642,5.39446 -9.10642,5.39446 13.70266,15.19996 29.85213,6.58656 33.538,2.85114 3.24241,-3.28155 3.70934,-7.29871 3.36241,-10.51242 l 44.30866,-43.74521 c 3.01808,-2.98157 3.01808,-7.812585 0,-10.7915409 z"
       id="brush-6-7-5"
       sketch:type="MSShapeGroup"
       style="fill:#000000;fill-rule:evenodd;stroke:none;stroke-width:2.60854" /><path
       style="fill:#ffec06;fill-opacity:1;stroke:none;stroke-width:0.209257;stroke-linecap:round;stroke-linejoin:round"
       d="m 571.27731,73.250517 c -1.84416,-0.23929 -3.84859,-0.9567 -4.9967,-1.78839 l -0.32039,-0.23209 0.76248,-0.78131 c 1.41833,-1.45332 2.66846,-3.31369 3.44282,-5.12338 1.06795,-2.49577 2.04048,-3.96893 3.64862,-5.5268 1.44078,-1.39574 3.05053,-2.37321 4.94871,-3.00494 1.59017,-0.52922 2.31588,-0.64835 4.24177,-0.69627 l 1.70928,-0.0425 1.81708,1.79316 c 2.0213,1.9947 2.14542,2.16674 2.473,3.42797 0.24839,0.95632 0.28125,2.38015 0.0748,3.243 -0.33272,1.39087 -1.0865,2.70996 -2.16396,3.78684 -2.16052,2.15938 -7.27841,4.30757 -11.61758,4.87639 -0.861,0.11287 -3.35066,0.1552 -4.01997,0.0683 z"
       id="path1-2-0-3" /><path
       d="m 743.99254,22.171482 -33.09715,32.677166 -3.64413,-3.59717 33.09977,-32.677185 c 1.00689,-0.993853 2.63722,-0.993853 3.64151,0 1.0069,0.993865 1.0069,2.603324 0,3.597189 z m -42.20356,41.671426 c -0.3365,-0.33129 -3.64413,-3.59718 -3.64413,-3.59718 l 5.46489,-5.39708 3.64152,3.59718 z m -5.4649,12.5862 c -2.5668,2.3816 -14.03654,7.68997 -20.79005,2.54333 0,0 2.35028,-1.83382 4.12931,-5.51446 4.24931,-11.28715 14.83998,-9.61507 14.83998,-9.61507 l 3.64153,3.59456 c 0.0365,0.0366 2.7207,4.78146 -1.82077,8.99164 z m 51.3126,-61.451991 c -3.01809,-2.978945 -7.91171,-2.978945 -10.92978,0 l -44.8095,44.243451 c -5.48576,-0.12521 -13.08445,1.81816 -16.36337,12.56012 -2.50682,5.6814 -9.10642,5.39446 -9.10642,5.39446 13.70266,15.19996 29.85213,6.58656 33.538,2.85114 3.24241,-3.28155 3.70934,-7.29871 3.36241,-10.51242 l 44.30866,-43.74521 c 3.01808,-2.98157 3.01808,-7.812585 0,-10.791541 z"
       id="brush-6-7-5-9"
       sketch:type="MSShapeGroup"
       style="fill:#000000;fill-rule:evenodd;stroke:none;stroke-width:2.60854" /><path
       style="fill:#ff9506;fill-opacity:1;stroke:none;stroke-width:0.209257;stroke-linecap:round;stroke-linejoin:round"
       d="m 680.96504,81.010778 c -1.84416,-0.23929 -3.84859,-0.9567 -4.9967,-1.78839 l -0.32039,-0.23209 0.76248,-0.78131 c 1.41833,-1.45332 2.66846,-3.31369 3.44282,-5.12338 1.06795,-2.49577 2.04048,-3.96893 3.64862,-5.5268 1.44078,-1.39574 3.05053,-2.37321 4.94871,-3.00494 1.59017,-0.52922 2.31588,-0.64835 4.24177,-0.69627 l 1.70928,-0.0425 1.81708,1.79316 c 2.0213,1.9947 2.14542,2.16674 2.473,3.42797 0.24839,0.95632 0.28125,2.38015 0.0748,3.243 -0.33272,1.39087 -1.0865,2.70996 -2.16396,3.78684 -2.16052,2.15938 -7.27841,4.30757 -11.61758,4.87639 -0.861,0.11287 -3.35066,0.1552 -4.01997,0.0683 z"
       id="path1-2-0-3-1" /><path
       id="path55"
       d="m 131.13048,82.968701 -4.45631,10.306629 h 2.44448 l 4.02383,-9.327723 c 0.13143,-0.274747 0.33838,-0.395017 0.63932,-0.395017 v 0 c 0.301,0 0.50732,0.12027 0.62044,0.395017 v 0 l 3.85482,9.327723 h 2.46314 l -4.28719,-10.306629 c -0.45129,-1.082262 -1.31634,-1.494388 -2.63222,-1.494388 v 0 c -1.33549,0 -2.2005,0.412126 -2.67031,1.494388 m -46.210413,0 -4.45647,10.306629 h 2.44468 l 4.02385,-9.327723 c 0.13164,-0.274747 0.33838,-0.395017 0.63936,-0.395017 v 0 c 0.30073,0 0.50763,0.12027 0.62039,0.395017 v 0 l 3.85475,9.327723 h 2.46341 l -4.28722,-10.306629 c -0.45147,-1.082262 -1.31652,-1.494388 -2.63265,-1.494388 v 0 c -1.33481,0 -2.20023,0.412126 -2.6701,1.494388 m -43.91768,1.030586 v 9.276043 h 2.21875 v -9.173056 c 0,-0.41231 0.26311,-0.669768 0.77058,-0.669768 v 0 c 0.39514,0 0.62081,0.154471 0.79011,0.498003 v 0 l 3.70423,7.403706 c 0.52635,1.322838 1.33503,2.147067 3.10246,2.147067 v 0 c 1.95589,0 2.91471,-1.013304 2.91471,-2.542253 v 0 -9.258937 h -2.23773 v 9.173023 c 0,0.395238 -0.28221,0.652717 -0.75202,0.652717 v 0 c -0.41391,0 -0.65831,-0.206004 -0.80868,-0.48073 v 0 l -3.70417,-7.403732 c -0.52662,-1.322812 -1.31635,-2.147057 -3.0838,-2.147057 v 0 c -1.97438,0 -2.91444,1.013299 -2.91444,2.524974 M 154.78045,81.680092 v 2.026971 h 3.7042 v 9.568267 h 2.2374 v -9.568267 h 3.7042 v -2.026971 z m -12.21977,0 v 2.026971 h 6.95687 c 1.2222,0 1.768,0.704534 1.768,1.528969 v 0 c 0,0.82462 -0.5081,1.614847 -1.768,1.614847 v 0 h -4.94504 c -1.39166,0 -1.99353,0.532389 -1.99353,1.837712 v 0 4.586739 h 2.21893 v -4.191712 c 0,-0.205794 0.1129,-0.291655 0.3199,-0.291655 v 0 h 3.3095 l 2.89564,4.483367 h 2.4634 l -2.9524,-4.638214 c 1.937,-0.497818 2.6887,-2.043885 2.6887,-3.486777 v 0 c 0,-1.855397 -1.2222,-3.470247 -4.08,-3.470247 v 0 z m -19.7575,0 -1.93696,3.470247 c -0.71442,1.270942 -1.07195,1.442897 -3.25309,1.442897 v 0 h -1.22189 v -4.913144 h -2.219 V 93.27533 h 2.219 v -4.844376 h 1.22189 c 2.38831,0 2.83982,0.171987 3.5351,1.4087 v 0 l 1.93695,3.435676 h 2.48171 l -2.04929,-3.641628 c -0.75229,-1.339926 -1.33482,-1.941101 -2.51995,-2.23314 v 0 c 1.03472,-0.41231 1.63602,-1.082268 2.20007,-2.113039 v 0 l 1.99333,-3.607431 z m -26.453083,0 v 2.026971 h 6.600333 c 1.20322,0 1.74813,0.704534 1.74813,1.546252 v 0 c 0,0.807337 -0.50747,1.597564 -1.76723,1.597564 v 0 h -4.569233 c -1.39161,0 -1.99348,0.532389 -1.99348,1.837712 v 0 4.586739 h 2.21895 v -4.191712 c 0,-0.205794 0.11297,-0.291655 0.31987,-0.291655 v 0 h 3.948793 c 2.97088,0 4.08022,-1.889594 4.08022,-3.641624 v 0 c 0,-1.855397 -1.22231,-3.470247 -4.08022,-3.470247 v 0 z m -17.2384,0 -3.59147,4.964629 -3.55382,-4.964629 h -2.68903 l 5.11457,6.596384 v 4.998854 h 2.23747 v -4.998854 l 5.11493,-6.596384 z m -17.78596,0 c -2.98975,0 -4.24972,1.305712 -4.24972,3.160913 v 0 c 0,1.271137 0.60166,2.164346 1.78637,2.611047 v 0 c -1.16557,0.446697 -1.82403,1.339911 -1.82403,2.662749 v 0 c 0,1.803515 1.22232,3.160529 4.2308,3.160529 v 0 h 6.43087 v -2.026977 h -6.43087 c -1.29742,0 -1.9178,-0.549503 -1.9178,-1.460174 v 0 c 0,-0.944742 0.65803,-1.408332 1.93652,-1.408332 v 0 h 6.29943 v -1.838296 h -6.24284 c -1.27869,0 -1.93653,-0.429409 -1.93653,-1.374113 v 0 c 0,-0.893404 0.58278,-1.46037 1.9178,-1.46037 v 0 h 6.35556 v -2.026976 z m -29.55352,0 c -2.98997,0 -4.24994,1.305712 -4.24994,3.160913 v 0 c 0,1.271137 0.60172,2.164346 1.78637,2.611047 v 0 c -1.16556,0.446697 -1.82381,1.339911 -1.82381,2.662749 v 0 c 0,1.803515 1.2221,3.160529 4.23063,3.160529 v 0 h 6.43102 v -2.026977 h -6.43102 c -1.29726,0 -1.91786,-0.549503 -1.91786,-1.460174 v 0 c 0,-0.944742 0.65852,-1.408332 1.9368,-1.408332 v 0 h 6.29917 v -1.838296 h -6.24285 c -1.2787,0 -1.93653,-0.429409 -1.93653,-1.374113 v 0 c 0,-0.893404 0.58279,-1.46037 1.91802,-1.46037 v 0 h 6.35555 v -2.026976 z m -16.58278,0 c -0.71443,0 -1.05281,0.309328 -1.05281,0.944703 v 0 9.705636 c 0,0.635734 0.33838,0.944899 1.05281,0.944899 v 0 h 4.47518 c 3.72333,0 5.71666,-1.889641 5.71666,-5.789076 v 0 c 0,-3.916565 -2.01227,-5.806162 -5.71666,-5.806162 v 0 z m 1.16619,9.362098 v -7.128785 c 0,-0.154472 0.075,-0.206342 0.24435,-0.206342 v 0 h 3.06464 c 2.46357,0 3.49771,1.116654 3.49771,3.762093 v 0 c 0,2.662363 -1.03414,3.779197 -3.49771,3.779197 v 0 h -3.06464 c -0.16929,0 -0.24435,-0.05168 -0.24435,-0.206163"
       style="fill:#000000;fill-opacity:1;stroke:none;stroke-width:0.196615" /><path
       id="path61"
       d="m 142.04018,7.3887758 c 0,1.03303 0.91685,1.87062 2.04763,1.87062 v 0 c 0.8913,0 1.6411,-0.52319 1.9232,-1.24896 v 0 h 12.52544 l -32.15704,31.0826002 35.01404,35.97375 h -18.44233 c -0.28164,-0.726332 -1.03229,-1.248959 -1.92298,-1.248959 v 0 c -1.13059,0 -2.04786,0.837588 -2.04786,1.870997 v 0 c 0,1.032839 0.91727,1.870617 2.04786,1.870617 v 0 c 0.89069,0 1.64134,-0.523376 1.92298,-1.248769 v 0 h 21.47513 L 128.22649,39.118596 161.69755,6.7665558 h -15.68654 c -0.2821,-0.72558 -1.0319,-1.24858 -1.9232,-1.24858 v 0 c -1.13078,0 -2.04763,0.83758 -2.04763,1.8708 m -46.803593,0 c 0,1.03304 0.91706,1.87062 2.04781,1.87062 v 0 c 0.89095,0 1.64113,-0.52319 1.92276,-1.24896 v 0 h 8.355693 V 35.281896 L 134.91942,9.3651958 c 0.76705,0.31854 1.70014,0.18812 2.31873,-0.39746 v 0 c 0.78457,-0.744 0.76132,-1.92831 -0.0527,-2.64525 v 0 c -0.81416,-0.71713 -2.11032,-0.69552 -2.89551,0.0481 v 0 c -0.61859,0.58577 -0.72718,1.44233 -0.35057,2.13127 v 0 L 108.9244,32.199896 V 6.7665558 h -9.717283 c -0.28164,-0.72558 -1.03182,-1.24858 -1.92276,-1.24858 v 0 c -1.13077,0 -2.04781,0.83758 -2.04781,1.8708 m -7.29919,0.0797 c 0,0.81391 0.57249,1.49928 1.36698,1.75674 v 0 V 76.65215 H 108.9244 V 57.98846 l 5.71808,-5.498717 11.61509,11.676221 c -0.39802,0.678038 -0.31701,1.537425 0.28206,2.139542 v 0 c 0.76067,0.764859 2.05583,0.821239 2.89266,0.126472 v 0 c 0.83662,-0.694947 0.89876,-1.878132 0.13781,-2.642428 v 0 c -0.59881,-0.602682 -1.52758,-0.757718 -2.30497,-0.460419 v 0 l -12.60082,-12.666589 -7.10152,6.829229 V 75.408459 H 90.666097 V 9.2252158 c 0.79443,-0.25746 1.36672,-0.94283 1.36672,-1.75674 v 0 c 0,-1.03322 -0.91684,-1.8708 -2.04765,-1.8708 v 0 c -1.13098,0 -2.04781,0.83758 -2.04781,1.8708 m -55.99853,-0.0553 h -17.8022 V 76.912001 h 28.39434 c 4.80208,0 9.40665,-0.641387 13.7185,-1.904249 v 0 c 0.54924,0.626921 1.49631,0.887006 2.35413,0.572235 v 0 c 1.04848,-0.38469 1.55764,-1.473719 1.13572,-2.431766 v 0 c -0.4213,-0.957863 -1.61334,-1.422228 -2.66167,-1.037354 v 0 c -0.79384,0.291476 -1.27642,0.987177 -1.28196,1.723472 v 0 c -4.16603,1.216259 -8.61818,1.834536 -13.26472,1.834536 v 0 H 15.497377 V 8.6564958 h 16.44145 c 0.28142,0.72502 1.03123,1.24783 1.92154,1.24783 v 0 c 1.12997,0 2.04618,-0.83721 2.04618,-1.86949 v 0 c 0,-1.03246 -0.91621,-1.86949 -2.04618,-1.86949 v 0 c -0.89031,0 -1.64012,0.52281 -1.92154,1.24783 m 24.72123,2.6405502 c -0.39123,0.96857 0.15078,2.0437 1.21102,2.40151 v 0 c 0.81152,0.27381 1.68844,0.0447 2.23214,-0.51097 v 0 c 3.71694,1.51468 7.04139,3.50896 9.88717,5.94918 v 0 c 7.02018,6.01965 10.88627,14.48816 10.88627,23.845558 v 0 c 0,8.258788 -2.89592,15.929931 -8.18533,21.816718 v 0 c -0.74465,-0.268548 -1.6253,-0.121967 -2.21794,0.434482 v 0 c -0.78805,0.740245 -0.77054,1.923992 0.0391,2.643746 v 0 c 0.81073,0.719762 2.10583,0.70416 2.89415,-0.03592 v 0 c 0.6486,-0.609444 0.742,-1.516 0.30647,-2.219781 v 0 c 5.50806,-6.11361 8.52398,-14.075854 8.52398,-22.639266 v 0 c 0,-9.704317 -4.01852,-18.494557 -11.31586,-24.752117 v 0 c -2.96801,-2.54489 -6.43376,-4.62167 -10.30729,-6.1948 v 0 c 0.0422,-0.7936002 -0.46691,-1.5549002 -1.32574,-1.8444902 v 0 c -0.23368,-0.0789 -0.47312,-0.11633 -0.70851,-0.11633 v 0 c -0.8323,0 -1.61454,0.46757 -1.91986,1.2224702 m -37.93717,3.30862 c 0,1.03247 0.91642,1.86949 2.04661,1.86949 v 0 c 0.89031,0 1.64012,-0.52281 1.9217,-1.24802 v 0 h 19.83978 c 15.77027,0 27.88915,7.83182 31.44665,20.10847 v 0 c -0.6745,0.39201 -1.06246,1.12736 -0.91948,1.89222 v 0 c 0.19007,1.01781 1.24757,1.70187 2.36151,1.52803 v 0 c 1.11388,-0.17383 1.86311,-1.13977 1.67303,-2.15758 v 0 c -0.15695,-0.83871 -0.90513,-1.44252 -1.78616,-1.53423 v 0 c -3.69746,-12.86804 -16.33474,-21.08004 -32.77559,-21.08004 v 0 h -19.83978 c -0.28158,-0.72502 -1.03139,-1.24783 -1.9217,-1.24783 v 0 c -1.13019,0 -2.04661,0.83702 -2.04661,1.86949 m 76.41704,-1.26474 v 58.881747 h 7.949163 v -4.659061 c 0.79427,-0.257084 1.36676,-0.942453 1.36676,-1.756171 v 0 c 0,-1.033408 -0.91663,-1.870806 -2.04765,-1.870806 v 0 c -1.13096,0 -2.04781,0.837398 -2.04781,1.870806 v 0 c 0,0.813718 0.57245,1.499087 1.36694,1.756171 v 0 3.415366 H 96.501207 V 13.341686 h 5.225853 v 11.83652 c -0.79449,0.25727 -1.36694,0.94283 -1.36694,1.75673 v 0 c 0,1.03303 0.91685,1.87081 2.04781,1.87081 v 0 c 1.13102,0 2.04765,-0.83778 2.04765,-1.87081 v 0 c 0,-0.8139 -0.57249,-1.49946 -1.36676,-1.75673 v 0 -13.08059 z m 40.464913,0.67221 c -0.61775,0.58595 -0.72577,1.4427 -0.34909,2.13146 v 0 l -32.16666,30.519381 v -7.686741 c 0.79427,-0.25746 1.36676,-0.94301 1.36676,-1.75674 v 0 c 0,-1.03321 -0.91663,-1.87042 -2.04765,-1.87042 v 0 c -1.13096,0 -2.04781,0.83721 -2.04781,1.87042 v 0 c 0,0.81373 0.57245,1.49928 1.36694,1.75674 v 0 10.77211 l 34.50903,-32.74199 c 0.76811,0.31798 1.70083,0.18699 2.31894,-0.39915 v 0 c 0.78372,-0.74419 0.75947,-1.92869 -0.0551,-2.64525 v 0 c -0.39724,-0.34935 -0.90903,-0.523 -1.42003,-0.52319 v 0 c -0.53711,0 -1.07339,0.19188 -1.47532,0.57337 m 8.07243,0.0225 c -0.61223,0.59102 -0.71195,1.44853 -0.32875,2.13427 v 0 l -22.77423,21.98284 c -0.7706,-0.31196 -1.70226,-0.17326 -2.31463,0.41757 v 0 c -0.77713,0.7502 -0.74137,1.93433 0.08,2.64469 v 0 c 0.82101,0.70999 2.11716,0.67729 2.89435,-0.0727 v 0 c 0.61258,-0.59122 0.71258,-1.44854 0.32931,-2.13447 v 0 l 22.77415,-21.98303 c 0.7704,0.31215 1.7021,0.17384 2.3144,-0.41738 v 0 c 0.7774,-0.7502 0.7414,-1.93451 -0.08,-2.6445 v 0 c -0.3958,-0.34221 -0.9018,-0.51209 -1.4073,-0.51209 v 0 c -0.5428,0 -1.0848,0.19619 -1.4878,0.58482 m -112.542123,5.72085 c 0,1.03247 0.91647,1.86949 2.04617,1.86949 v 0 c 0.89031,0 1.64039,-0.52281 1.92176,-1.24783 v 0 h 7.42793 c 5.20607,0 10.02893,1.11384 14.07418,3.2359 v 0 c -0.17567,0.70058 0.0994,1.46131 0.77059,1.91778 v 0 c 0.9065,0.6164 2.1891,0.44445 2.86345,-0.38412 v 0 c 0.67412,-0.82819 0.48627,-1.99953 -0.42025,-2.61574 v 0 c -0.75661,-0.51454 -1.77118,-0.47282 -2.47964,0.0348 v 0 c -4.26287,-2.25005 -9.3383,-3.43173 -14.80833,-3.43173 v 0 h -7.42793 c -0.28137,-0.72539 -1.03145,-1.24802 -1.92176,-1.24802 v 0 c -1.1297,0 -2.04617,0.83722 -2.04617,1.86949 m -5.94945,0.0938 c 0,0.81316 0.57229,1.49834 1.36588,1.75542 v 0 11.2361 c -0.79359,0.25728 -1.36588,0.94207 -1.36588,1.7556 v 0 c 0,1.03247 0.91642,1.86968 2.04633,1.86968 v 0 c 1.13018,0 2.0466,-0.83721 2.0466,-1.86968 v 0 c 0,-0.81353 -0.57228,-1.49833 -1.36609,-1.7556 v 0 -11.2361 c 0.79381,-0.25708 1.36609,-0.94226 1.36609,-1.75542 v 0 c 0,-1.03246 -0.91642,-1.86948 -2.0466,-1.86948 v 0 c -1.12991,0 -2.04633,0.83702 -2.04633,1.86948 m -6.58333,0.35556 c 0,0.81334 0.57212,1.49833 1.36571,1.75542 v 0 43.836569 h 1.36097 V 20.717986 c 0.7938,-0.25708 1.36608,-0.94207 1.36608,-1.75542 v 0 c 0,-1.03264 -0.91642,-1.86967 -2.04633,-1.86967 v 0 c -1.13017,0 -2.04643,0.83703 -2.04643,1.86967 m 19.96076,4.6119 h -6.17972 v 21.065195 c -0.7938,0.257083 -1.36608,0.942262 -1.36608,1.755611 v 0 c 0,1.032464 0.9162,1.869487 2.04654,1.869487 v 0 c 1.12997,0 2.04643,-0.837023 2.04643,-1.869487 v 0 c 0,-0.813349 -0.57212,-1.498523 -1.36634,-1.755611 v 0 -19.822065 h 4.81917 c 0.28157,0.72521 1.03118,1.24783 1.92171,1.24783 v 0 c 1.13017,0 2.04617,-0.83702 2.04617,-1.86949 v 0 c 0,-1.03228 -0.916,-1.86948 -2.04617,-1.86948 v 0 c -0.89053,0 -1.64014,0.5228 -1.92171,1.24801 m 13.77198,2.8172 c -0.52293,0.9152 -0.13518,2.04463 0.86684,2.52253 v 0 c 0.73335,0.34992 1.58992,0.24975 2.20312,-0.18604 v 0 c 3.55936,2.33253 5.83264,5.56467 6.67237,9.48763 v 0 c -0.69037,0.32737 -1.14663,0.99883 -1.10322,1.75466 v 0 c 0.0591,1.03097 1.02237,1.822886 2.15091,1.76858 v 0 c 1.12828,-0.05393 1.99533,-0.93399 1.93568,-1.96495 v 0 c -0.0502,-0.86991 -0.74527,-1.56318 -1.63864,-1.72818 v 0 c -0.90719,-4.24938 -3.43125,-7.83877 -7.28743,-10.36337 v 0 c 0.20838,-0.81146 -0.19277,-1.67912 -1.03841,-2.08278 v 0 c -0.3024,-0.14414 -0.62639,-0.21255 -0.94548,-0.21255 v 0 c -0.73804,0 -1.45083,0.36552 -1.81574,1.00447 m 11.518,1.24069 c -0.92054,0.59854 -1.13635,1.76575 -0.48136,2.6071 v 0 c 0.48036,0.61677 1.29578,0.88325 2.05999,0.74738 v 0 c 1.8639,3.18835 2.84451,6.86775 2.84451,10.75219 v 0 c 0,7.485843 -3.32176,14.017216 -9.18033,18.204393 v 0 c -0.64491,-0.412684 -1.52041,-0.466991 -2.23668,-0.06991 v 0 c -0.96642,0.535406 -1.27458,1.685324 -0.68832,2.567826 v 0 c 0.58605,0.882692 1.84482,1.1642 2.81123,0.628799 v 0 c 0.80577,-0.446322 1.14452,-1.319241 0.89833,-2.109099 v 0 c 6.22555,-4.422078 9.75673,-11.32179 9.75673,-19.222017 v 0 c 0,-4.109942 -1.04563,-8.007532 -3.03421,-11.387382 v 0 c 0.58321,-0.63631 0.65498,-1.57143 0.10433,-2.27935 v 0 c -0.39925,-0.51267 -1.02997,-0.7861 -1.66994,-0.7861 v 0 c -0.41041,0 -0.82448,0.11238 -1.18428,0.34617 m 39.249413,26.00671 c -0.76875,-0.314966 -1.70126,-0.180599 -2.31648,0.40761 v 0 c -0.7813,0.746818 -0.75165,1.931127 0.0663,2.644495 v 0 c 0.81763,0.713744 2.11384,0.686682 2.89493,-0.06051 v 0 c 0.61569,-0.588015 0.71954,-1.444774 0.34001,-2.132585 v 0 l 10.64853,-10.182583 26.52527,26.663891 h 10.16793 L 133.11408,52.162533 c 0.40647,-0.674092 0.3357,-1.533852 -0.25632,-2.142173 v 0 c -0.75166,-0.772 -2.04581,-0.841533 -2.89061,-0.155035 v 0 c -0.84548,0.686491 -0.92095,1.869113 -0.16992,2.640924 v 0 c 0.59185,0.608499 1.51829,0.773503 2.29901,0.483156 v 0 l 16.29947,16.746281 h -6.53239 L 114.76019,42.490726 Z M 73.081887,47.591794 c -0.13639,0.767865 0.26101,1.501903 0.94316,1.887716 v 0 c -3.48552,12.734619 -15.62976,20.861672 -31.4948,20.861672 v 0 h -13.27537 v 1.243131 h 13.27537 c 16.54285,0 29.20649,-8.512861 32.82677,-21.847534 v 0 c 0.87713,-0.100914 1.61643,-0.70942 1.76459,-1.547382 v 0 c 0.181,-1.018937 -0.57724,-1.979241 -1.6926,-2.144236 v 0 c -0.1106,-0.01634 -0.22073,-0.02421 -0.32932,-0.02421 v 0 c -0.98619,0 -1.85509,0.653044 -2.0178,1.570876 m -47.89695,2.702192 c 0,0.81297 0.57229,1.498333 1.36588,1.755607 v 0 14.028681 h 12.01155 c 0.28157,0.725579 1.03118,1.247826 1.92171,1.247826 v 0 c 1.13017,0 2.04617,-0.836644 2.04617,-1.869115 v 0 c 0,-1.032274 -0.916,-1.869862 -2.04617,-1.869862 v 0 c -0.89053,0 -1.64014,0.52356 -1.92171,1.248015 v 0 H 27.912237 V 52.049627 c 0.79381,-0.257274 1.36609,-0.942637 1.36609,-1.755607 v 0 c 0,-1.032464 -0.91642,-1.869304 -2.0466,-1.869304 v 0 c -1.12991,0 -2.04633,0.83684 -2.04633,1.869304 m 33.4385,0.364765 c -0.36633,0.661498 -0.25568,1.42429 0.20569,1.976604 v 0 c -3.50645,4.386573 -9.32928,6.872081 -16.29741,6.872081 v 0 l -7.42819,-0.01165 c -0.28015,-0.725768 -1.02891,-1.248953 -1.91922,-1.250457 v 0 c -1.12997,-0.0016 -2.04787,0.833823 -2.04987,1.865913 v 0 c -0.006,1.032659 0.91268,1.871187 2.04269,1.87306 v 0 c 0.89026,0.0011 1.64135,-0.520365 1.92393,-1.245384 v 0 l 7.42919,0.01165 c 7.44644,0 13.67984,-2.689973 17.43834,-7.433979 v 0 c 0.90203,0.199955 1.86865,-0.179091 2.30639,-0.96782 v 0 c 0.51037,-0.921589 0.10713,-2.046328 -0.90123,-2.51276 v 0 c -0.29624,-0.137183 -0.61194,-0.202018 -0.9228,-0.202018 v 0 c -0.74712,-1.42e-4 -1.46713,0.374722 -1.82751,1.02476"
       style="fill:#000000;fill-opacity:1;stroke:none;stroke-width:0.196615" /><path
       id="path67"
       d="m 19.274397,65.463763 -1.01684,1.607146 3.06755,-0.0053 v 2.473483 l 0.87981,0.464365 0.87962,-0.464365 -0.006,-2.473483 3.06175,-0.0053 -1.01663,-1.607337 z m 6.24368,5.437644 -2.3478,-1.236744 -0.87981,0.464364 v 0.928919 l 2.3478,1.231666 -1.52515,2.426502 h 2.02787 l 2.91904,-4.639326 -1.01684,-1.602073 z m -9.16245,-0.803575 2.93602,4.623546 h 2.02792 l -1.53665,-2.421429 2.34754,-1.242003 -0.006,-0.928919 -0.87965,-0.459101 -2.34195,1.242003 -1.53664,-2.421429 z"
       style="fill:#000000;fill-opacity:1;stroke:none;stroke-width:0.196615" /><path
       d="m 1225.9763,18.568953 14.0264,14.359095 c 2.4806,2.539396 2.4806,6.656568 0,9.195964 l -24.5092,25.086702 17.2147,6.1e-4 c 1.0719,0 1.9578,0.815429 2.098,1.873384 l 0.019,0.294123 c 0,1.097325 -0.7966,2.004195 -1.83,2.14772 l -0.2873,0.01977 -23.742,0.0034 c -1.7396,0.09717 -3.5108,-0.534437 -4.8397,-1.894832 l -14.0264,-14.359181 c -2.4806,-2.539397 -2.4806,-6.656569 0,-9.195966 l 26.8932,-27.531071 c 2.4806,-2.539396 6.5024,-2.539396 8.983,0 z m -28.6859,26.296192 -4.196,4.3002 c -0.8269,0.846468 -0.8269,2.218854 0,3.065322 l 14.0264,14.359102 c 0.4135,0.42323 0.9553,0.634846 1.4972,0.634846 l 0.082,-0.01333 0.1087,0.0047 c 0.4768,-0.04376 0.9419,-0.252473 1.3069,-0.626138 l 4.1955,-4.297856 z m 22.6973,-23.230871 -19.702,20.164564 17.0202,17.426776 19.7025,-20.166924 c 0.8269,-0.84646 0.8269,-2.218853 0,-3.065321 L 1222.982,21.634274 c -0.8269,-0.846468 -2.1675,-0.846468 -2.9943,0 z"
       id="🎨-Color"
       style="fill:#000000;fill-opacity:1;fill-rule:nonzero;stroke:none;stroke-width:2.85633" /><rect
       style="fill:#ffffff;fill-opacity:1;stroke:none;stroke-width:3.18642;stroke-linecap:round;stroke-linejoin:round"
       id="rect2"
       width="1280"
       height="669.40204"
       x="-7.4606987e-14"
       y="98.597939" /><path
       d="m 853.68027,22.171482 -33.09715,32.677166 -3.64413,-3.59717 33.09977,-32.677185 c 1.00689,-0.993853 2.63722,-0.993853 3.64151,0 1.0069,0.993865 1.0069,2.603324 0,3.597189 z m -42.20356,41.671426 c -0.3365,-0.33129 -3.64413,-3.59718 -3.64413,-3.59718 l 5.46489,-5.39708 3.64152,3.59718 z m -5.4649,12.5862 c -2.5668,2.3816 -14.03654,7.68997 -20.79005,2.54333 0,0 2.35028,-1.83382 4.12931,-5.51446 4.24931,-11.28715 14.83998,-9.61507 14.83998,-9.61507 l 3.64153,3.59456 c 0.0365,0.0366 2.7207,4.78146 -1.82077,8.99164 z m 51.3126,-61.451991 c -3.01809,-2.978945 -7.91171,-2.978945 -10.92978,0 l -44.8095,44.243451 c -5.48576,-0.12521 -13.08445,1.81816 -16.36337,12.56012 -2.50682,5.6814 -9.10642,5.39446 -9.10642,5.39446 13.70266,15.19996 29.85213,6.58656 33.538,2.85114 3.24241,-3.28155 3.70934,-7.29871 3.36241,-10.51242 l 44.30866,-43.74521 c 3.01808,-2.98157 3.01808,-7.812585 0,-10.791541 z"
       id="brush-6-7-5-9-2"
       sketch:type="MSShapeGroup"
       style="fill:#000000;fill-rule:evenodd;stroke:none;stroke-width:2.60854" /><path
       style="fill:#ffe088;fill-opacity:1;stroke:none;stroke-width:0.209257;stroke-linecap:round;stroke-linejoin:round"
       d="m 790.65277,81.010778 c -1.84416,-0.23929 -3.84859,-0.9567 -4.9967,-1.78839 l -0.32039,-0.23209 0.76248,-0.78131 c 1.41833,-1.45332 2.66846,-3.31369 3.44282,-5.12338 1.06795,-2.49577 2.04048,-3.96893 3.64862,-5.5268 1.44078,-1.39574 3.05053,-2.37321 4.94871,-3.00494 1.59017,-0.52922 2.31588,-0.64835 4.24177,-0.69627 l 1.70928,-0.0425 1.81708,1.79316 c 2.0213,1.9947 2.14542,2.16674 2.473,3.42797 0.24839,0.95632 0.28125,2.38015 0.0748,3.243 -0.33272,1.39087 -1.0865,2.70996 -2.16396,3.78684 -2.16052,2.15938 -7.27841,4.30757 -11.61758,4.87639 -0.861,0.11287 -3.35066,0.1552 -4.01997,0.0683 z"
       id="path1-2-0-3-1-6" /><path
       d="m 1031.7077,21.91439 -33.09717,32.677166 -3.64413,-3.59717 33.0998,-32.677185 c 1.0069,-0.993853 2.6372,-0.993853 3.6415,0 1.0069,0.993865 1.0069,2.603324 0,3.597189 z m -42.20358,41.671426 c -0.3365,-0.33129 -3.64413,-3.59718 -3.64413,-3.59718 l 5.46489,-5.39708 3.64152,3.59718 z m -5.4649,12.5862 c -2.5668,2.3816 -14.03654,7.68997 -20.79005,2.54333 0,0 2.35028,-1.83382 4.12931,-5.51446 4.24931,-11.28715 14.83998,-9.61507 14.83998,-9.61507 l 3.64153,3.59456 c 0.0365,0.0366 2.7207,4.78146 -1.82077,8.99164 z m 51.31258,-61.451991 c -3.0181,-2.978945 -7.9117,-2.978945 -10.9298,0 l -44.80946,44.243451 c -5.48576,-0.12521 -13.08445,1.81816 -16.36337,12.56012 -2.50682,5.6814 -9.10642,5.39446 -9.10642,5.39446 13.70266,15.19996 29.85213,6.58656 33.538,2.85114 3.24241,-3.28155 3.70934,-7.29871 3.36241,-10.51242 l 44.30864,-43.74521 c 3.0181,-2.98157 3.0181,-7.812585 0,-10.791541 z"
       id="brush-6-7-5-9-2-9"
       sketch:type="MSShapeGroup"
       style="fill:#000000;fill-rule:evenodd;stroke:none;stroke-width:2.60854" /><path
       style="fill:#ffffff;fill-opacity:1;stroke:none;stroke-width:0.209257;stroke-linecap:round;stroke-linejoin:round"
       d="m 968.68018,80.753686 c -1.84416,-0.23929 -3.84859,-0.9567 -4.9967,-1.78839 l -0.32039,-0.23209 0.76248,-0.78131 c 1.41833,-1.45332 2.66846,-3.31369 3.44282,-5.12338 1.06795,-2.49577 2.04048,-3.96893 3.64862,-5.5268 1.44078,-1.39574 3.05053,-2.37321 4.94871,-3.00494 1.59017,-0.52922 2.31588,-0.64835 4.24177,-0.69627 l 1.70928,-0.0425 1.81708,1.79316 c 2.0213,1.9947 2.14542,2.16674 2.473,3.42797 0.24839,0.95632 0.28125,2.38015 0.0748,3.243 -0.33272,1.39087 -1.0865,2.70996 -2.16396,3.78684 -2.16052,2.15938 -7.27841,4.30757 -11.61758,4.87639 -0.861,0.11287 -3.35066,0.1552 -4.01997,0.0683 z"
       id="path1-2-0-3-1-6-2" /><path
       d="m 1121.2184,22.171482 -33.0971,32.677166 -3.6441,-3.59717 33.0997,-32.677185 c 1.0069,-0.993853 2.6372,-0.993853 3.6415,0 1.0069,0.993865 1.0069,2.603324 0,3.597189 z m -42.2036,41.671426 c -0.3365,-0.33129 -3.6441,-3.59718 -3.6441,-3.59718 l 5.4649,-5.39708 3.6415,3.59718 z m -5.4649,12.5862 c -2.5668,2.3816 -14.0365,7.68997 -20.79,2.54333 0,0 2.3503,-1.83382 4.1293,-5.51446 4.2493,-11.28715 14.84,-9.61507 14.84,-9.61507 l 3.6415,3.59456 c 0.037,0.0366 2.7207,4.78146 -1.8208,8.99164 z m 51.3127,-61.451991 c -3.0181,-2.978945 -7.9117,-2.978945 -10.9298,0 l -44.8095,44.243451 c -5.4858,-0.12521 -13.0845,1.81816 -16.3634,12.56012 -2.5068,5.6814 -9.1064,5.39446 -9.1064,5.39446 13.7026,15.19996 29.8521,6.58656 33.538,2.85114 3.2424,-3.28155 3.7093,-7.29871 3.3624,-10.51242 l 44.3087,-43.74521 c 3.0181,-2.98157 3.0181,-7.812585 0,-10.791541 z"
       id="brush-6-7-5-9-2-7"
       sketch:type="MSShapeGroup"
       style="fill:#000000;fill-opacity:1;fill-rule:evenodd;stroke:none;stroke-width:2.60854" /><path
       style="fill:#000000;fill-opacity:1;stroke:none;stroke-width:0.209257;stroke-linecap:round;stroke-linejoin:round"
       d="m 1058.1909,81.010778 c -1.8442,-0.23929 -3.8486,-0.9567 -4.9967,-1.78839 l -0.3204,-0.23209 0.7625,-0.78131 c 1.4183,-1.45332 2.6684,-3.31369 3.4428,-5.12338 1.068,-2.49577 2.0405,-3.96893 3.6486,-5.5268 1.4408,-1.39574 3.0506,-2.37321 4.9487,-3.00494 1.5902,-0.52922 2.3159,-0.64835 4.2418,-0.69627 l 1.7093,-0.0425 1.8171,1.79316 c 2.0213,1.9947 2.1454,2.16674 2.473,3.42797 0.2484,0.95632 0.2812,2.38015 0.075,3.243 -0.3328,1.39087 -1.0865,2.70996 -2.164,3.78684 -2.1605,2.15938 -7.2784,4.30757 -11.6176,4.87639 -0.861,0.11287 -3.3506,0.1552 -4.0199,0.0683 z"
       id="path1-2-0-3-1-6-5" /></g><g
     inkscape:groupmode="layer"
     id="layer2"
     inkscape:label="kapali"><path
       style="display:none;fill:#000000;fill-opacity:1;stroke:#000000;stroke-width:1.337;stroke-linecap:round;stroke-linejoin:round;stroke-dasharray:none;stroke-opacity:1;paint-order:normal"
       d="m 354.11531,51.937718 -1.53777,-1.438404 12.69157,-12.600526 c 19.51936,-19.379337 20.96795,-20.7479 21.96113,-20.7479 1.04924,0 2.42664,1.301298 2.44468,2.309614 0.01,0.553709 -4.12518,4.84262 -16.70437,17.325747 -9.19465,9.124433 -16.85252,16.589878 -17.0175,16.589878 -0.16498,0 -0.99196,-0.647285 -1.83774,-1.438409 z"
       id="path5" /><path
       style="display:none;fill:#000000;fill-opacity:1;stroke:#000000;stroke-width:0.534;stroke-linecap:round;stroke-linejoin:round;stroke-dasharray:none;stroke-opacity:1;paint-order:normal"
       d="m 516.79666,56.848409 -1.73316,-1.738557 16.54015,-16.334718 c 9.09708,-8.984097 16.73025,-16.460472 16.9626,-16.614169 0.25993,-0.171949 0.73185,-0.279856 1.22675,-0.280506 1.90519,-0.0025 3.10289,1.989999 2.12014,3.52707 -0.19791,0.309532 -6.16629,6.291675 -13.26307,13.293651 -7.09678,7.001976 -14.52706,14.340722 -16.51174,16.308325 l -3.6085,3.577459 z"
       id="path6" /><path
       style="display:none;fill:#000000;fill-opacity:1;stroke:#000000;stroke-width:1.429;stroke-linecap:round;stroke-linejoin:round;stroke-dasharray:none;stroke-opacity:1;paint-order:normal"
       d="m 679.35002,51.820596 -1.53214,-1.555528 16.52794,-16.316658 c 9.09037,-8.974161 16.88424,-16.450655 17.31971,-16.614432 1.66727,-0.627042 3.52479,1.205514 2.87855,2.839867 -0.29819,0.754135 -32.95647,33.202282 -33.41729,33.202282 -0.13455,0 -0.93409,-0.699987 -1.77677,-1.555531 z"
       id="path7" /><path
       style="display:inline;fill:#000000;fill-opacity:1;stroke:#000000;stroke-width:0.562;stroke-linecap:round;stroke-linejoin:round;stroke-dasharray:none;stroke-opacity:1;paint-order:normal"
       d="m 1207.9917,67.068966 c -0.4253,-0.134739 -0,0.280907 -8.0743,-7.95974 -4.995,-5.100213 -7.0241,-7.245658 -7.1821,-7.593861 -0.5353,-1.179428 -0.2912,-1.619613 2.4057,-4.338331 l 2.186,-2.203723 7.0272,7.199873 c 3.8649,3.959929 7.6562,7.859892 8.425,8.666581 l 1.3979,1.46671 -2.0779,2.157125 c -1.1429,1.18642 -2.2371,2.257793 -2.4316,2.38083 -0.4181,0.264466 -1.2134,0.371027 -1.6759,0.224536 z"
       id="path8" /></g></svg>
